
<?xml version="1.0" standalone="no"?>
<!DOCTYPE svg PUBLIC "-//W3C//DTD SVG 20010904//EN"
 "http://www.w3.org/TR/2001/REC-SVG-20010904/DTD/svg10.dtd">
<svg version="1.0" xmlns="http://www.w3.org/2000/svg"
 width="512.000000pt" height="512.000000pt" viewBox="0 0 512.000000 512.000000"
 preserveAspectRatio="xMidYMid meet">
<metadata>
Created by potrace 1.12, written by Peter Selinger 2001-2015
</metadata>
<g transform="translate(0.000000,512.000000) scale(0.100000,-0.100000)"
fill="#000000" stroke="none">
<path d="M4243 3685 c-18 -7 -196 -178 -397 -379 l-366 -366 -347 0 c-327 0
-350 1 -380 20 -37 22 -50 43 -59 97 -8 52 16 107 58 133 31 19 50 20 393 20
339 0 362 1 392 20 50 30 66 71 61 152 -5 58 -10 74 -33 98 -15 16 -42 32 -59
36 -17 4 -338 7 -712 6 -611 0 -688 -2 -740 -17 -126 -36 -157 -61 -469 -372
-162 -163 -295 -300 -295 -305 0 -6 10 -19 22 -29 11 -11 147 -142 301 -292
154 -149 311 -302 349 -339 l71 -68 197 198 197 197 609 1 c548 0 612 2 641
17 20 10 95 98 198 229 91 117 171 220 178 228 27 33 223 283 242 309 24 33
127 164 135 171 22 21 63 86 70 112 13 42 -10 92 -52 118 -40 24 -155 27 -205
5z"/>
<path d="M1021 2854 c-47 -33 -392 -384 -401 -409 -6 -15 -6 -34 -1 -48 13
-35 949 -966 978 -973 13 -4 33 -2 45 3 11 5 110 98 220 208 197 198 199 200
195 237 -5 34 -50 82 -479 512 -346 345 -482 475 -504 480 -19 4 -37 1 -53
-10z"/>
</g>
</svg>
