<?xml version="1.0" encoding="utf-8"?>
<svg width="512" height="512" viewBox="0 0 512 512" xmlns="http://www.w3.org/2000/svg"
     xmlns:xlink="http://www.w3.org/1999/xlink">
    <defs>
		<svg xmlns="http://www.w3.org/2000/svg" width="48" height="48" viewBox="0 0 48 48" id="icon_chat_bubble"><path d="M40 4H8C5.79 4 4 5.79 4 8v36l8-8h28c2.21 0 4-1.79 4-4V8c0-2.21-1.79-4-4-4zm0 28H12l-4 4V8h32v24z"/></svg>

		<svg xmlns="http://www.w3.org/2000/svg" width="48" height="48" viewBox="0 0 48 48" id="icon_exit"><path d="M20.17 31.17L23 34l10-10-10-10-2.83 2.83L25.34 22H6v4h19.34l-5.17 5.17zM38 6H10c-2.21 0-4 1.79-4 4v8h4v-8h28v28H10v-8H6v8c0 2.21 1.79 4 4 4h28c2.21 0 4-1.79 4-4V10c0-2.21-1.79-4-4-4z"/></svg>
		<svg xmlns="http://www.w3.org/2000/svg" width="100%" height="100%" viewBox="0 0 48 48" id="icon_home">
		    <path d="M20 40V28h8v12h10V24h6L24 6 4 24h6v16z"/>
		    <path d="M0 0h48v48H0z" fill="none"/>
		</svg>

		<svg height="48" viewBox="0 0 24 24" width="48" xmlns="http://www.w3.org/2000/svg" id="icon_lamp">
		    <path d="M0 0h24v24H0z" fill="none"/>
		    <path d="M3.55 18.54l1.41 1.41 1.79-1.8-1.41-1.41-1.79 1.8zM11 22.45h2V19.5h-2v2.95zM4 10.5H1v2h3v-2zm11-4.19V1.5H9v4.81C7.21 7.35 6 9.28 6 11.5c0 3.31 2.69 6 6 6s6-2.69 6-6c0-2.22-1.21-4.15-3-5.19zm5 4.19v2h3v-2h-3zm-2.76 7.66l1.79 1.8 1.41-1.41-1.8-1.79-1.4 1.4z"/>
		</svg>		

		<svg height="48" viewBox="0 0 24 24" width="48" xmlns="http://www.w3.org/2000/svg" id="icon_lightstrip">
		    <path d="M4.59 6.89c.7-.71 1.4-1.35 1.71-1.22.5.2 0 1.03-.3 1.52-.25.42-2.86 3.89-2.86 6.31 0 1.28.48 2.34 1.34 2.98.75.56 1.74.73 2.64.46 1.07-.31 1.95-1.4 3.06-2.77 1.21-1.49 2.83-3.44 4.08-3.44 1.63 0 1.65 1.01 1.76 1.79-3.78.64-5.38 3.67-5.38 5.37 0 1.7 1.44 3.09 3.21 3.09 1.63 0 4.29-1.33 4.69-6.1H21v-2.5h-2.47c-.15-1.65-1.09-4.2-4.03-4.2-2.25 0-4.18 1.91-4.94 2.84-.58.73-2.06 2.48-2.29 2.72-.25.3-.68.84-1.11.84-.45 0-.72-.83-.36-1.92.35-1.09 1.4-2.86 1.85-3.52.78-1.14 1.3-1.92 1.3-3.28C8.95 3.69 7.31 3 6.44 3 5.12 3 3.97 4 3.72 4.25c-.36.36-.66.66-.88.93l1.75 1.71zm9.29 11.66c-.31 0-.74-.26-.74-.72 0-.6.73-2.2 2.87-2.76-.3 2.69-1.43 3.48-2.13 3.48z"/>
		    <path d="M0 0h24v24H0z" fill="none"/>
		</svg>
		<svg height="48" viewBox="0 0 24 24" width="48" xmlns="http://www.w3.org/2000/svg" id="icon_sun">
		    <path d="M0 0h24v24H0z" fill="none"/>
		    <path d="M6.76 4.84l-1.8-1.79-1.41 1.41 1.79 1.79 1.42-1.41zM4 10.5H1v2h3v-2zm9-9.95h-2V3.5h2V.55zm7.45 3.91l-1.41-1.41-1.79 1.79 1.41 1.41 1.79-1.79zm-3.21 13.7l1.79 1.8 1.41-1.41-1.8-1.79-1.4 1.4zM20 10.5v2h3v-2h-3zm-8-5c-3.31 0-6 2.69-6 6s2.69 6 6 6 6-2.69 6-6-2.69-6-6-6zm-1 16.95h2V19.5h-2v2.95zm-7.45-3.91l1.41 1.41 1.79-1.8-1.41-1.41-1.79 1.8z"/>
		</svg>

		<svg version="1.1" id="Capa_1" xmlns="http://www.w3.org/2000/svg" xmlns:xlink="http://www.w3.org/1999/xlink" x="0px" y="0px"
			 viewBox="0 0 611.999 611.999" style="enable-background:new 0 0 611.999 611.999;" xml:space="preserve" id="icon_thermometer">
		<g>
			<g>
				<path d="M385.087,52.422c-4.325-10.226-10.511-19.404-18.386-27.278s-17.053-14.061-27.278-18.386
					C328.821,2.274,317.576,0,305.999,0s-22.822,2.274-33.423,6.758c-10.226,4.326-19.403,10.511-27.278,18.386
					c-7.874,7.874-14.061,17.053-18.386,27.278c-4.484,10.602-6.758,21.847-6.758,33.423v289.85
					c-12.611,10.576-23.261,23.45-31.236,37.857c-10.905,19.699-16.67,42.071-16.67,64.697c0,18.044,3.54,35.563,10.523,52.071
					c6.738,15.93,16.378,30.231,28.652,42.506c12.274,12.274,26.576,21.915,42.506,28.652c16.507,6.982,34.027,10.523,52.071,10.523
					s35.563-3.54,52.071-10.523c15.93-6.738,30.231-16.378,42.506-28.652c12.274-12.275,21.915-26.576,28.652-42.506
					c6.982-16.507,10.523-34.027,10.523-52.071c0-22.627-5.764-44.998-16.67-64.697c-7.976-14.406-18.626-27.281-31.236-37.857V85.845
					C391.844,74.269,389.571,63.023,385.087,52.422z M411.52,478.248c0,58.278-47.243,105.521-105.521,105.521
					s-105.521-47.243-105.521-105.521c0-37.017,19.065-69.575,47.906-88.41V85.845c0-31.82,25.795-57.614,57.614-57.614l0,0
					c31.82,0,57.614,25.795,57.614,57.614v4.248H312.9c-7.795,0-14.115,6.32-14.115,14.115s6.32,14.115,14.115,14.115h50.714v28.231
					H312.9c-7.795,0-14.115,6.32-14.115,14.115s6.32,14.115,14.115,14.115h50.714v28.231H312.9c-7.795,0-14.115,6.32-14.115,14.115
					c0,7.795,6.32,14.115,14.115,14.115h50.714v158.592C392.456,408.673,411.52,441.232,411.52,478.248z"/>
				<path d="M351.608,408.223l-9.952-6.499v-11.886v-101.88c0-19.661-15.996-35.657-35.657-35.657s-35.657,15.996-35.657,35.657
					v101.88v11.886l-9.952,6.499c-23.766,15.519-37.954,41.697-37.954,70.025c0,22.32,8.692,43.305,24.475,59.088
					c15.783,15.783,36.768,24.475,59.088,24.475s43.305-8.693,59.088-24.475c15.783-15.783,24.475-36.768,24.475-59.088
					C389.563,449.92,375.374,423.743,351.608,408.223z"/>
			</g>
		</g>
		<g>
		</g>
		<g>
		</g>
		<g>
		</g>
		<g>
		</g>
		<g>
		</g>
		<g>
		</g>
		<g>
		</g>
		<g>
		</g>
		<g>
		</g>
		<g>
		</g>
		<g>
		</g>
		<g>
		</g>
		<g>
		</g>
		<g>
		</g>
		<g>
		</g>
		</svg>
		<svg height="48" viewBox="0 0 24 24" width="48" xmlns="http://www.w3.org/2000/svg" id="icon_blind">
		    <path d="M10 18h5V5h-5v13zm-6 0h5V5H4v13zM16 5v13h5V5h-5z"/>
		    <path d="M0 0h24v24H0z" fill="none"/>
		</svg>
		<svg height="48" viewBox="0 0 24 24" width="48" xmlns="http://www.w3.org/2000/svg" id="icon_chromecast">
		    <path d="M0 0h24v24H0z" fill="none" opacity=".1"/>
		    <path d="M0 0h24v24H0z" fill="none"/>
		    <path d="M21 3H3c-1.1 0-2 .9-2 2v3h2V5h18v14h-7v2h7c1.1 0 2-.9 2-2V5c0-1.1-.9-2-2-2zM1 18v3h3c0-1.66-1.34-3-3-3zm0-4v2c2.76 0 5 2.24 5 5h2c0-3.87-3.13-7-7-7zm0-4v2c4.97 0 9 4.03 9 9h2c0-6.08-4.93-11-11-11z"/>
		</svg>
		<svg height="48" viewBox="0 0 24 24" width="48" xmlns="http://www.w3.org/2000/svg" id="icon_cloud">
		    <path d="M0 0h24v24H0z" fill="none"/>
		    <path d="M19.36 10.04C18.67 6.59 15.64 4 12 4 9.11 4 6.6 5.64 5.35 8.04 2.34 8.36 0 10.91 0 14c0 3.31 2.69 6 6 6h13c2.76 0 5-2.24 5-5 0-2.64-2.05-4.78-4.64-4.96z"/>
		</svg>

		<svg fill="#000000" height="48" viewBox="0 0 24 24" width="48" xmlns="http://www.w3.org/2000/svg" id="icon_night">
		    <path d="M9 2c-1.05 0-2.05.16-3 .46 4.06 1.27 7 5.06 7 9.54 0 4.48-2.94 8.27-7 9.54.95.3 1.95.46 3 .46 5.52 0 10-4.48 10-10S14.52 2 9 2z"/>
		    <path d="M0 0h24v24H0z" fill="none"/>
		</svg>

		<svg fill="#000000" height="24" viewBox="0 0 24 24" width="24" xmlns="http://www.w3.org/2000/svg" id="icon_scenario">
		    <path d="M8 5v14l11-7z"/>
		    <path d="M0 0h24v24H0z" fill="none"/>
		</svg>
    </defs>
</svg>